<?xml version="1.0" encoding="utf-8"?>
<!-- Generator: Adobe Illustrator 20.1.0, SVG Export Plug-In . SVG Version: 6.00 Build 0)  -->
<svg version="1.1" id="Layer_1" xmlns="http://www.w3.org/2000/svg" xmlns:xlink="http://www.w3.org/1999/xlink" x="0px" y="0px"
	 viewBox="0 0 512 512" style="enable-background:new 0 0 512 512;" xml:space="preserve">
<style type="text/css">
	.st0{fill:#010202;}
</style>
<g>
	<path class="st0" d="M256,15c32.5,0,64.1,6.4,93.8,18.9c28.7,12.1,54.5,29.5,76.6,51.7s39.5,47.9,51.7,76.6
		c12.6,29.7,18.9,61.3,18.9,93.8s-6.4,64.1-18.9,93.8c-12.1,28.7-29.5,54.5-51.7,76.6s-47.9,39.5-76.6,51.7
		C320.1,490.6,288.5,497,256,497s-64.1-6.4-93.8-18.9c-28.7-12.1-54.5-29.5-76.6-51.7s-39.5-47.9-51.7-76.6
		C21.4,320.1,15,288.5,15,256s6.4-64.1,18.9-93.8c12.1-28.7,29.5-54.5,51.7-76.6s47.9-39.5,76.6-51.7C191.9,21.4,223.5,15,256,15
		 M256,0C114.6,0,0,114.6,0,256s114.6,256,256,256s256-114.6,256-256S397.4,0,256,0L256,0z"/>
</g>
<g>
	<path class="st0" d="M329.5,196.3c-0.9-3.1-2-5.6-3.4-7.6c-1.4-2-3.4-3.7-5.8-5c-2.4-1.3-5.3-1.9-8.7-1.9s-6.2,0.6-8.7,1.9
		s-4.4,2.9-5.8,5c-1.4,2-2.6,4.6-3.4,7.6c-0.9,3.1-1.5,6.1-1.7,9.1c-0.3,3-0.4,6.4-0.4,10.2v81c0,4.4,0.3,8.5,0.9,12.2
		c0.6,3.7,1.6,7.3,3,10.6c1.4,3.4,3.5,6,6.2,7.9c2.7,1.9,6,2.9,9.9,2.9c13.4,0,20.1-11.2,20.1-33.8v-81c0-3.8-0.1-7.2-0.4-10.2
		C331,202.4,330.4,199.3,329.5,196.3z"/>
	<path class="st0" d="M430.9,138.7l-160.1-93c-8.2-4.7-21.5-4.7-29.7,0L81,138.7c-8.1,4.7-14.8,16.3-14.8,25.8v186
		c0,9.4,6.6,21.1,14.8,25.8l160.1,93c8.2,4.7,21.5,4.7,29.7,0l160.1-93c8.2-4.8,14.9-16.4,14.8-25.8v-186
		C445.7,155.1,439.1,143.4,430.9,138.7z M247.4,323.5v27h-93.8v-27l46.9-67.5c0.6-0.8,1.8-2.5,3.7-5.1c1.9-2.6,3.1-4.4,3.8-5.4
		c0.6-0.9,1.7-2.6,3.2-5.1c1.5-2.4,2.6-4.3,3.2-5.6c0.6-1.3,1.4-3.1,2.4-5.5c1-2.4,1.7-4.5,2.2-6.4c0.4-1.9,0.8-4,1.1-6.5
		c0.4-2.5,0.5-5,0.5-7.7c0-7.5-1.7-13.9-5.2-19.1c-3.4-5.3-8.4-7.8-14.9-7.8c-3.8,0-7.1,0.9-9.8,2.9c-2.7,1.9-4.8,4.5-6.2,7.9
		c-1.4,3.4-2.4,6.9-3.1,10.7c-0.6,3.8-0.9,7.8-0.9,12.3v6.7h-26.8v-6.7c0-17.7,3.8-31.5,11.3-41.2c7.5-9.8,19.4-14.7,35.6-14.7
		c15.2,0,26.8,4.3,34.8,12.9s12,20.7,12,36.2c0,5.8-0.5,11.3-1.5,16.4c-1,5.1-2.6,9.9-4.8,14.5c-2.2,4.6-4.2,8.5-6.1,11.5
		c-1.8,3-4.4,6.9-7.7,11.6l-46.8,60.7L247.4,323.5z M358.4,296.5c0,16.9-4,30.5-11.9,40.6c-8,10.2-19.6,15.2-34.9,15.2
		c-10.2,0-18.8-2.4-26-7.2c-7.1-4.9-12.4-11.4-15.8-19.7c-3.4-8.3-5.1-17.9-5.1-28.9v-81c0-17.4,3.9-31,11.7-41s19.5-14.9,35.1-14.9
		c15.5,0,27.2,5,35.1,15c7.8,10,11.8,23.6,11.8,40.9V296.5z"/>
</g>
</svg>
